<?xml version="1.0"?>
<svg xmlns="http://www.w3.org/2000/svg" version="1" viewBox="0 0 50 50" enable-background="new 0 0 50 50">
    <path style="text-indent:0;text-align:start;line-height:normal;text-transform:none;block-progression:tb;-inkscape-font-specification:Bitstream Vera Sans" d="M 10.59375 4 C 4.7528695 4 0 8.7528695 0 14.59375 L 0 18.53125 A 1.0043849 1.0043849 0 0 0 0 19.40625 L 0 30.53125 A 1.0043849 1.0043849 0 0 0 0 31.40625 L 0 35.40625 C 0 41.247131 4.7528695 46 10.59375 46 L 39.40625 46 C 45.247131 46 50 41.247131 50 35.40625 L 50 31.1875 A 1.0001 1.0001 0 0 0 50 30.78125 L 50 19.1875 A 1.0001 1.0001 0 0 0 50 18.78125 L 50 14.59375 C 50 8.7528695 45.247131 4 39.40625 4 L 10.59375 4 z M 10.59375 6 L 39.40625 6 C 44.165369 6 48 9.8346305 48 14.59375 L 48 18 L 37.15625 18 L 37 18 C 36.967702 18 36.938304 18.001018 36.90625 18 C 35.296221 17.948885 34 16.622247 34 15 C 34 13.345455 35.345455 12 37 12 A 1.0001 1.0001 0 1 0 37 10 C 34.254545 10 32 12.254545 32 15 C 32 17.033863 33.242427 18.78448 35 19.5625 L 35 30.25 C 31.544802 31.135501 29 34.262259 29 38 C 29 40.396978 30.057626 42.535854 31.71875 44 L 18.28125 44 C 19.942374 42.535854 21 40.396978 21 38 C 21 34.262259 18.455198 31.135501 15 30.25 L 15 19.5625 C 16.757573 18.78448 18 17.033863 18 15 C 18 12.254545 15.745455 10 13 10 L 9 10 A 1.0001 1.0001 0 0 0 8.90625 10 A 1.001098 1.001098 0 0 0 8.8125 10 A 1.0043849 1.0043849 0 0 0 9 12 L 13 12 C 14.654545 12 16 13.345455 16 15 C 16 16.600716 14.736447 17.916363 13.15625 18 C 13.103111 18.002813 13.053829 18 13 18 L 12.90625 18 L 2 18 L 2 14.59375 C 2 9.8346305 5.8346305 6 10.59375 6 z M 2 20 L 12.84375 20 L 13 20 L 13 30 L 2 30 L 2 20 z M 37 20 L 37.09375 20 L 48 20 L 48 30 L 37 30 L 37 20 z M 2 32 L 13 32 A 1.0001 1.0001 0 0 0 13.09375 32 C 16.418441 32.048564 19 34.661431 19 38 C 19 41.370085 16.370085 44 13 44 L 10.59375 44 C 5.8346305 44 2 40.165369 2 35.40625 L 2 32 z M 36.84375 32 A 1.001098 1.001098 0 0 0 37 32 L 48 32 L 48 35.40625 C 48 40.165369 44.165369 44 39.40625 44 L 37 44 C 33.629915 44 31 41.370085 31 38 C 31 34.682441 33.549356 32.08025 36.84375 32 z"/>
</svg>
